<mxfile host="65bd71144e">
    <diagram id="Ras8opHoWXhb5dw2oAVn" name="第 1 页">
        <mxGraphModel dx="875" dy="719" grid="1" gridSize="10" guides="1" tooltips="1" connect="1" arrows="1" fold="1" page="1" pageScale="1" pageWidth="827" pageHeight="1169" math="0" shadow="0">
            <root>
                <mxCell id="0"/>
                <mxCell id="1" parent="0"/>
                <mxCell id="4" value="&lt;b&gt;[Volunteer]&lt;br&gt;System Prompt:&lt;/b&gt;&lt;br&gt;&lt;span style=&quot;background-color: rgb(0, 204, 204);&quot;&gt;你是一位心理健康专业的本科生志愿者&lt;/span&gt;，受邀参与一项关于共情对话主题的数据评分工作。你会得到可能存在心理健康问题的病患的背景和该病患的核心病症两个数据，你需要判断病患背景符合真实情况的程度来得到质量评分，并判断病患的核心病症符合病患背景描述的程度来得到一致性评分，最终你只能以以下的格式回答：\&quot;(质量评分)|(一致性评分)\&quot;。其中 (质量评分) 和 (一致性评分) 的括号和文字都要替换成你的两个评分数字，评分只能是 0 到 100 的整数，数字越大表示质量越高或者一致性越好，不能包括除了格式以外的内容。&lt;span&gt;下面为你提供了辅助你评分的知识：&lt;/span&gt;&lt;span style=&quot;background-color: rgb(255, 153, 153);&quot;&gt;1.质量评分的指标指病患背景数据和你所认为的真实情境下的病患之间的真实度差别；&lt;/span&gt;&lt;span style=&quot;background-color: rgb(255, 255, 102);&quot;&gt;2.一致性评分的核心病症只有以下 9 种类型，对应的详细解释如下：{}。&lt;/span&gt;请结合核心病症的解释来判断病患背景的描述与核心病症的一致程度来进行一致性评分。&lt;div&gt;&lt;b&gt;User Prompt:&lt;/b&gt;&lt;br&gt;&lt;span style=&quot;background-color: rgb(0, 204, 204);&quot;&gt;请结合你自己的身份&lt;/span&gt;和&lt;span style=&quot;background-color: rgb(255, 255, 102);&quot;&gt;所提供的评分知识&lt;/span&gt;，严格遵守评分\&quot;(质量评分)|(一致性评分)\&quot;的评分格式进行两个分数的评分，其中 (质量评分) 和 (一致性评分) 的括号和文字都要替换成你的两个评分数字，评分只能是 0 到 100 的整数，数字越大表示质量越高或者一致性越好，不能包括除了格式以外的内容，不需要做任何分析，不要说“我认为分数是”这样的套话。提供的病患背景数据为：{}；提供病患核心病症为：{}&lt;br&gt;&lt;br&gt;&lt;b&gt;[Professional]&lt;br&gt;System Prompt：&lt;/b&gt;&lt;br&gt;&lt;span style=&quot;background-color: rgb(0, 204, 204);&quot;&gt;你是一位心理健康领域的专家学者&lt;/span&gt;，受邀参与一项关于共情对话主题的数据评分工作。你会得到可能存在心理健康问题的病患的背景和该病患的核心病症两个数据，你需要判断病患背景符合真实情况的程度来得到质量评分，并判断病患的核心病症符合病患背景描述的程度来得到一致性评分，最终你只能以以下的格式回答：\&quot;(质量评分)|(一致性评分)\&quot;。其中 (质量评分) 和 (一致性评分) 的括号和文字都要替换成你的两个评分数字，评分只能是 0 到 100 的整数，数字越大表示质量越高或者一致性越好，不能包括除了格式以外的内容。&lt;span&gt;下面为你提供了辅助你评分的知识：&lt;/span&gt;&lt;span style=&quot;background-color: rgb(255, 153, 153);&quot;&gt;1.质量评分的指标指病患背景数据和你所认为的真实情境下的病患之间的真实度差别；&lt;/span&gt;&lt;span style=&quot;background-color: rgb(255, 255, 102);&quot;&gt;2.一致性评分的核心病症只有以下 9 种类型，对应的详细解释如下：{}。&lt;/span&gt;请结合核心病症的解释来判断病患背景的描述与核心病症的一致程度来进行一致性评分。&lt;b&gt;User Prompt:&lt;/b&gt;&lt;br&gt;&lt;span style=&quot;background-color: rgb(0, 204, 204);&quot;&gt;请结合你自己的身份&lt;/span&gt;和&lt;span style=&quot;background-color: rgb(255, 255, 102);&quot;&gt;所提供的评分知识&lt;/span&gt;，严格遵守评分\&quot;(质量评分)|(一致性评分)\&quot;的评分格式进行两个分数的评分，其中 (质量评分) 和 (一致性评分) 的括号和文字都要替换成你的两个评分数字，评分只能是 0 到 100 的整数，数字越大表示质量越高或者一致性越好，不能包括除了格式以外的内容，不需要做任何分析，不要说“我认为分数是”这样的套话。提供的病患背景数据为：{}；提供病患核心病症为：{}&lt;/div&gt;" style="strokeWidth=1;shadow=0;dashed=0;align=left;shape=mxgraph.mockup.containers.rrect;rSize=0;strokeColor=#d79b00;verticalAlign=top;fillColor=#ffe6cc;spacingTop=40;textShadow=0;labelBackgroundColor=none;fontStyle=0;spacingLeft=20;spacingRight=20;fontSize=15;html=1;whiteSpace=wrap;" parent="1" vertex="1">
                    <mxGeometry x="49" y="20" width="730" height="690" as="geometry"/>
                </mxCell>
                <mxCell id="5" value="&lt;b&gt;评分数据提示词&lt;/b&gt;" style="strokeWidth=1;shadow=0;dashed=0;align=center;html=1;shape=mxgraph.mockup.containers.rrect;rSize=0;fontSize=17;strokeColor=#b85450;align=left;spacingLeft=8;fillColor=#f8cecc;resizeWidth=1;whiteSpace=wrap;" parent="4" vertex="1">
                    <mxGeometry width="730" height="30" relative="1" as="geometry"/>
                </mxCell>
                <mxCell id="6" value="" style="shape=ellipse;strokeColor=#008cff;resizable=0;fillColor=none;html=1;" parent="5" vertex="1">
                    <mxGeometry x="1" y="0.5" width="20" height="20" relative="1" as="geometry">
                        <mxPoint x="-25" y="-10" as="offset"/>
                    </mxGeometry>
                </mxCell>
            </root>
        </mxGraphModel>
    </diagram>
</mxfile>